<svg xmlns="http://www.w3.org/2000/svg" xmlns:xlink="http://www.w3.org/1999/xlink" viewBox="0 0 297.28 80.6"><defs><clipPath id="a"><rect width="297.28" height="80.6" fill="none"/></clipPath></defs><title>logo</title><g clip-path="url(#a)"><path d="M35.11,80.6a31,31,0,0,1-9.49-1.45C10.89,74.36.86,60.08.06,42.79-.63,28,4.65,15.35,14.9,7.15A30.65,30.65,0,0,1,34.36,0a30.9,30.9,0,0,1,11,2.08A23.37,23.37,0,0,1,58.8,14.39c3.21-4,8.55-6.7,16-8a23,23,0,0,1,3.92-.34c7.26,0,13.3,3.43,16.52,9a19.65,19.65,0,0,1,3.44-6.5,16.93,16.93,0,0,1,12-6.08c.52,0,1-.07,1.51-.07a17.72,17.72,0,0,1,8.11,2,21.66,21.66,0,0,1,4.25-1.92,18.12,18.12,0,0,1,5.78-1,17.68,17.68,0,0,1,2.52.18A6.51,6.51,0,0,1,138,5.26a6.35,6.35,0,0,1,.64,2.82l.47-.49a23.27,23.27,0,0,1,32.82-.16A6.72,6.72,0,0,1,175.12,4a19.08,19.08,0,0,1,6.22-1.67,21.26,21.26,0,0,1,2.47-.13,15.19,15.19,0,0,1,6.14,1.1,11.81,11.81,0,0,1,4.38,3.3A6.76,6.76,0,0,1,196,5.66a18.9,18.9,0,0,1,6.6-1.15H203a16.85,16.85,0,0,1,8.62,2.07,10.46,10.46,0,0,1,5,6.83A22.56,22.56,0,0,1,232,7.56a23.87,23.87,0,0,1,5.34.61,22.19,22.19,0,0,1,14.25,10.24c.19.31.37.63.54,1l.05-.08c2-3,5.73-3,6.94-3a18.76,18.76,0,0,1,2.36.15c1.73.23,7.58,1.22,10.94,4.66a11.25,11.25,0,0,1,3.07,7.6A25.24,25.24,0,0,1,285.92,26h.6c7.74.28,10.63,5,10.75,9.36a9.16,9.16,0,0,1-2.62,6.7,10,10,0,0,1-7.15,3,10.24,10.24,0,0,1-3.33-.63l-.12,0a14.35,14.35,0,0,0-3.12.52c3,6.53,2.77,14.22,2.64,18.46,0,.72,0,1.54,0,1.88s0,.6.06.81a6.13,6.13,0,0,1,2.93,5c.06,2.08-.86,5-5.54,6.93a20.55,20.55,0,0,1-6.75,1.12,13.78,13.78,0,0,1-6.55-1.48,12.9,12.9,0,0,1-6.28-6.86,11.18,11.18,0,0,1-4.71.86c-.4,0-.8,0-1.17,0-2.09-.15-7-.51-10.89-4.15a11,11,0,0,1-3.3-7,21.28,21.28,0,0,1-12,3.67,23.65,23.65,0,0,1-5.31-.62,21.89,21.89,0,0,1-12-7.11c-1.38,2.5-4.25,3.66-9.24,3.76h-.58c-4.59,0-8.35-1.2-10.9-3.46-3.83-3.42-3.54-8.54-3.25-11l-1,0a16.37,16.37,0,0,1-4.93-.73,16,16,0,0,1-5-2.54c-3.7,9.57-11.37,15.3-21.44,15.33h-.1a22,22,0,0,1-15.38-5.91l.22,4c.55,10.39-6.87,19.3-17.66,21.18a21.72,21.72,0,0,1-3.72.33A19.25,19.25,0,0,1,99.57,59.6a11.89,11.89,0,0,1-.07-1.51,17.24,17.24,0,0,1-4.94,1.61,15.38,15.38,0,0,1-2.61.22A14.62,14.62,0,0,1,86.79,59,19.55,19.55,0,0,1,75.3,64.47c-.55,0-1.1.07-1.64.07a17.23,17.23,0,0,1-10.34-3.2,25,25,0,0,1-6.81,11.14,31.15,31.15,0,0,1-21.4,8.13" fill="#fff" fill-rule="evenodd"/><path d="M54.13,48.68C52.87,54,47.32,61.78,36.07,60.81c-8.22-.71-15.69-7.45-18.76-16.87-2.19-6.68-2-14.73,0-19.58,2.25-5.5,5.93-9.19,10.53-10.38,7-1.78,12.49,1.79,14.34,6.69,1.19,3.14,2.16,9,.09,12.74-2.33,4-7.91,6.12-11.81,3.81,6.38-.08,9.58-7.14,4.87-11.92-2.84-2.88-8.11-1.86-10.51,2.74-2.6,5,.55,12.26,6.33,14.9,9.78,4.48,24.34-3.5,24-18.1-.15-7.42-3.55-14.16-11.9-17.33s-17.06-2-24.79,4.18C9.15,19.18,5.3,30.42,5.86,42.52c.71,15.26,9.48,27.18,21.56,31.11C35,76.11,45.68,74.77,52.5,68.27c6.34-6,7-14.73,5.23-20.62-.48-1.57-2.83-2.21-3.61,1" fill="#004388" fill-rule="evenodd"/><path d="M100.53,46.16c-2.78,1.27-4.63.1-5.13-2.74l-3.67-21c-1.3-8.11-8.67-11.55-16-10.29-7.15,1.23-12.91,3.92-14.35,9.94-.93,3.93.53,6.56,3,6.72s4.45-1.12,4.79-3.88a11.33,11.33,0,0,0-.17-2.36c-.47-2.51,1.55-4.61,4.24-5,3.11-.47,6.7,2.15,5.55,5.65-.93,2.83-8,6.24-11.84,10.71-3.26,3.76-5.47,8.47-4.85,14C63,55.54,68.48,59.2,74.82,58.68c5-.41,9.36-4.65,10.79-7.52A8,8,0,0,0,93.57,54c3-.53,6.59-2.12,7.6-7.07.12-.61-.24-.93-.64-.75M76.69,49.54c-3.18-1.8-3.6-5.85-3.13-8.77.55-3.43,2-6.68,6.7-11L83.68,47a5,5,0,0,1-7,2.53" fill="#004388" fill-rule="evenodd"/><path d="M132.46,16.7c-.13-2.42-.53-6.83.1-7.92s.13-1.25-.57-1.35a12,12,0,0,0-5.62.53,12.15,12.15,0,0,0-5.8,3.67,12.35,12.35,0,0,0-9.43-3.37C100.75,9.17,98.54,19.44,100,32c1,8.23,3,19.18,13.09,20.72a9.13,9.13,0,0,0,9.27-3.81l.45,5c.58,5.09-2.34,9.35-7.21,9.44-3.83.07-7.29-3.21-8.61-5.67-.5-1-1.95-1.39-1.65,1.26,1.08,9.56,9,13.57,16.38,12.28S135,63.79,134.57,56.07ZM119,46.54c-4.68.2-5.8-9.32-6.56-16.23-.67-6.11-2.28-15.68,3-16.39,1.42-.2,4.4,1.28,4.63,4.64l1.89,22.63c.19,2.89-.69,5.26-2.91,5.35" fill="#004388" fill-rule="evenodd"/><path d="M155.51,6.55c-10.19,0-18.51,8.22-18.22,22.77s8.13,22.59,18.32,22.55,17.7-8,18.09-22.69-8-22.66-18.19-22.63m5.25,22.62c-.35,14-.75,18.51-5.16,18.53s-5.16-4.52-5.36-18.48,1.1-19,5.29-19.07c4.48-.06,5.58,5.06,5.24,19" fill="#004388" fill-rule="evenodd"/><path d="M208.72,11.62a11.33,11.33,0,0,0-6-1.3,14,14,0,0,0-4.61.76c-.32.13-.47.25-.34.51.63,1.34.54,2.32.22,4.83l-2,15c-.24,2-2.54,3.19-4.51,2.84-2.56-.45-2.37-2.64-2.06-5.29l1.47-13.66c.23-2,.36-5.07-3.25-6.68a12.94,12.94,0,0,0-5.54-.51,15.14,15.14,0,0,0-4.29,1.08c-.39.2-.63.52-.39.72a4.74,4.74,0,0,1,1.42,4.25l-1,13.54c-.72,6.25.79,10,6.06,11.67,4.42,1.4,9.7-.73,11.06-1.74l-1,8.08c-.27,2.12-.45,5.08,1.27,6.61,2.11,1.88,5.67,2,7.51,2,1.56,0,4.63-.43,4.27-.92a6,6,0,0,1-1.28-5.31l5.26-29.67c.74-3.5-.21-5.67-2.16-6.78" fill="#004388" fill-rule="evenodd"/><path d="M236,13.84c-9.84-2.27-19.84,3.74-23,17.91s2.49,23.78,12.34,26S244.16,54.06,248,39.93s-2.19-23.83-12-26.1M235.68,37c-3.66,13.46-5.14,17.77-9.4,16.79s-3.91-5.54-.78-19.13,5.63-18.22,9.65-17.29c4.32,1,4.18,6.17.53,19.62" fill="#004388" fill-rule="evenodd"/><path d="M286.3,31.78c-6.73-.24-15.92,6.12-21.07,11l3.84-10.2c.69-1.85,1.15-5.37-.83-7.41-1.8-1.84-5.71-2.72-7.53-3s-4.09-.11-3.77.67a5.67,5.67,0,0,1,.26,4.8l-9.57,28.47c-.9,2.57-.64,5.54,1,7.07,2.38,2.22,5.61,2.47,7.36,2.6,1.44.11,3.51-.12,3.24-.65a6,6,0,0,1-.43-5.38l4-10.08a24.51,24.51,0,0,1,1-2.92c4.2,2.48,2.4,18.91,2.64,20.27a7,7,0,0,0,4,5.47c3,1.6,7.86.32,8.33.12.86-.36,2.78-1.34,1.59-1.76-1.7-.6-2.48-2.32-2.62-5.39-.15-3.44,1.63-16.8-5.49-22.79a22.1,22.1,0,0,1,12.18-4.15c1.12,0,2,.67,3,.68a3.78,3.78,0,0,0,4-3.71c-.07-2.4-1.81-3.59-5.17-3.72" fill="#004388" fill-rule="evenodd"/></g></svg>