<svg xmlns="http://www.w3.org/2000/svg" xmlns:xlink="http://www.w3.org/1999/xlink" viewBox="0 0 193.7 168.53">
  <defs>
    <linearGradient id="a" data-name="Share Love Gradient" x1="6.49" y1="92.08" x2="182.41" y2="92.08" gradientUnits="userSpaceOnUse">
      <stop offset="0" stop-color="#fbdc00"/>
      <stop offset="1" stop-color="#fccc00"/>
    </linearGradient>
  </defs>
  <title>sticker</title>
  <g style="isolation: isolate">
    <g>
      <polygon points="193.7 127.75 148.76 22.2 63.7 0 0 52.13 24.22 168.53 193.7 127.75" fill="#fff"/>
      <polygon points="6.46 54.95 84.49 69.34 142.87 26 6.46 54.95" fill="#e3f2fb"/>
      <polygon points="6.46 54.95 64.76 4.78 142.87 26 6.46 54.95" fill="#cbe7f6"/>
      <g>
        <path d="M93.65,45.09,77.92,17.79a3.11,3.11,0,0,0-3.44-1.2L61.31,20.41c-1.47.43-2.29,1.72-1.81,2.9l8.59,20.84a19.91,19.91,0,0,1,3.84,2.61,12.28,12.28,0,0,1,3.88,8.83c0,.42,0,.83,0,1.24A3.38,3.38,0,0,0,77,56.52l15.54-7.28A2.88,2.88,0,0,0,93.65,45.09Z" fill="#c8d7e0"/>
        <path d="M72.43,54.66,68.09,44.15c-4.57-2.39-9.39-2.39-13.45.16a16.85,16.85,0,0,0-4.19,3.84l-.35.47c-.14.18-.28.38-.43.56C47.79,47.82,45,46,43.05,45.87c-1,.22-1.48,1.77-1,2A13.63,13.63,0,0,1,48.47,50c-.36.13-.78.24-1.18.34l-.69.19A22.8,22.8,0,0,0,40.78,53c-5.23,3.28-5,8.11.6,12.92,5,4.28,17.53,6.32,23.55,2.54a7.24,7.24,0,0,0,2.63-2.74,10.24,10.24,0,0,0,4-1.42h0a9.32,9.32,0,0,0,4.21-7.46A3.48,3.48,0,0,1,72.43,54.66Z" fill="#c8d7e0"/>
        <path d="M71.93,46.76a19.91,19.91,0,0,0-3.84-2.61l4.34,10.51a3.48,3.48,0,0,0,3.35,2.17c0-.41,0-.82,0-1.24A12.28,12.28,0,0,0,71.93,46.76Z" fill="#b5c3cc"/>
        <path d="M48,46.64a.61.61,0,0,0,.36.14.75.75,0,0,0,.44-.08c.08,0,.52-.26,1.11-.63,1.19-.75,3.28-2.29,3.87-4.18.88-2.81-1.79-5.32-1.81-5.34a.76.76,0,0,0-.8-.06s-.47.23-1.12.64c-1.19.74-3.27,2.28-3.86,4.17C45.34,44,47.89,46.53,48,46.64Z" fill="#b5cfde"/>
      </g>
      <g>
        <path d="M73.71,13,57.5,18.25c-1.73.57-2.7,2.07-2.13,3.36L68.7,52.12a3.73,3.73,0,0,0,4.73,1.6l17.79-6.57c1.83-.68,2.67-2.46,1.88-4L77.9,14.24C77.26,13,75.38,12.46,73.71,13Z" fill="#00834b"/>
        <polygon points="89.05 39 68.14 46.51 57.88 23.34 77.56 16.85 89.05 39" fill="#e3f2fb"/>
        <path d="M62.39,18.77l8.19-2.67a.59.59,0,0,1,.73.22c.12.23,0,.47-.33.57l-8.21,2.69a.58.58,0,0,1-.74-.22C61.94,19.15,62.07,18.88,62.39,18.77Z" fill="#93ce1f"/>
      </g>
      <path d="M131,50.7c-1.26-.13-2.48-.3-3.74-.38A15.58,15.58,0,0,0,129.38,49a8.85,8.85,0,0,0,1.55-1.14c.88-1.06,0-2.26-.87-3s-1.71-1.42-2.63-2.12a10.93,10.93,0,0,0-10.75-1.06c-2.11.91-6.18,4.18-8.5,6.12a12.12,12.12,0,0,0,1-5.2c-.17-2.91-3.89-3.75-6.23-4.43a24.12,24.12,0,0,0-4.81-1,23.7,23.7,0,0,0-4.68.29L89.24,38a6,6,0,0,0-2.65.78c-4.19,2.87,4.49,6.12,6.29,6.83a48.14,48.14,0,0,0,6,1.72L84.22,45.79,82,51.2l2.85.3L79.74,63.94l41.51,4.35,5.11-12.45,2.45.26ZM94.46,38.32c5.07-1.29,8.72,6.11,11.56,9.76l-.29,0C100.09,45,89.43,39.6,94.46,38.32Z" fill="#c8d7e0"/>
      <path d="M129.48,36.24l-11.08.08a28.92,28.92,0,0,0,5-1.1c4.31-1.8,5-4.69,2.21-7.26-1-.91-2-1.79-3-2.65a8.09,8.09,0,0,0-10.83.19c-1.9,1.65-5.27,7-7.17,10.22a25.43,25.43,0,0,0,0-7.68c-.68-3.81-3.89-8.15-7.2-9.39a12.5,12.5,0,0,0-4.91,0c-2.39.51-5.79,2.56-8.56,4-3.94,2-5.38,5-2.92,7.53A22.55,22.55,0,0,0,89,35a36.79,36.79,0,0,0,6.29,1.52l-14.8.13-1.11,8.19,2.87,0L79.67,63.65l41.85-.37,2.57-18.84,2.47,0Zm-7.49-8c2.33,2.55-8.7,5.84-15,8.16h-.68C111.19,32.56,119.59,25.64,122,28.26ZM89.11,24.19c4.75-2.68,9.83,7.45,13.35,12.27h-.29C96,33,84.4,26.85,89.11,24.19Z" fill="#db291a"/>
      <polygon points="128.28 39.6 129.48 36.23 122.6 36.29 90.78 63.55 94.34 63.52 128.28 39.6" fill="#bf1f0f"/>
      <g>
        <g style="mix-blend-mode: multiply">
          <path d="M48.88,48.51a22.13,22.13,0,0,0-2.16-1.25,9.09,9.09,0,0,0-3.67-1.39c-1,.22-1.48,1.77-1,2a18,18,0,0,0,2.18.35,13,13,0,0,1,2.13.72c.43.19.85.39,1.25.61s.75.61,1.18.46a1.89,1.89,0,0,0,.48-.28,1.58,1.58,0,0,0,.29-.22C49.76,49.25,49.4,48.88,48.88,48.51Z" fill="#dfdfe0"/>
        </g>
        <g>
          <path d="M51.79,39.36a18,18,0,0,0-4.54,4l-.39.5c-.14.2-.3.4-.46.59-2-1.49-4.92-3.43-7-3.66-1.13.23-1.62,1.87-1.11,2.09a14.59,14.59,0,0,1,6.82,2.47c-.39.13-.84.24-1.27.34-.25.06-.51.12-.74.19a24.19,24.19,0,0,0-6.26,2.49c-5.64,3.41-5.49,8.57.41,13.81,5.24,4.66,18.61,7.06,25.1,3.14a7.81,7.81,0,0,0,2.86-2.88A11,11,0,0,0,69.51,61h0c3-1.82,4.72-5.18,4.69-9.21a13.16,13.16,0,0,0-4-9.51C64.31,37.05,57.43,36,51.79,39.36Z" fill="#93ce1f"/>
          <path d="M45.56,43.74a23.56,23.56,0,0,0-2.28-1.37,9.74,9.74,0,0,0-3.89-1.56c-1.13.23-1.62,1.87-1.11,2.09a19.56,19.56,0,0,0,2.32.42,13,13,0,0,1,2.25.8c.46.21.9.44,1.33.68s.79.66,1.25.51A2,2,0,0,0,46,45a1.47,1.47,0,0,0,.31-.23C46.49,44.55,46.12,44.15,45.56,43.74Z" fill="#00834b"/>
          <path d="M45.53,41.81c.08-.05.56-.27,1.19-.66,1.28-.77,3.54-2.38,4.21-4.39,1-3-1.81-5.71-1.84-5.73a.78.78,0,0,0-.85-.08s-.51.24-1.2.66C45.75,32.38,43.5,34,42.83,36c-1,2.9,1.72,5.61,1.84,5.73a.6.6,0,0,0,.38.16A1,1,0,0,0,45.53,41.81Z" fill="#00834b"/>
        </g>
      </g>
      <polygon points="182.41 121.78 30.43 158.35 6.49 54.76 84.68 69.03 142.9 25.81 182.41 121.78" fill="url(#a)"/>
      <g>
        <path d="M160.82,77.09c-1.6-8-8-13.1-15.54-12.29a12.53,12.53,0,0,0-7,3,8,8,0,0,0-5.45-1.5,7.65,7.65,0,0,0-7.79-3.9,6.81,6.81,0,0,0-4.66,3,7,7,0,0,0-1.13,3.7,14.08,14.08,0,0,0-2.17.26l-6.37,1.3a8,8,0,0,0-5.42,3.62.41.41,0,0,1-.05.09,13.51,13.51,0,0,0-8.95-.61C91.72,75,88,79,84,81.45a47.65,47.65,0,0,1-14.25,6.36C65.82,88.72,61.62,89,58.14,91a11.13,11.13,0,0,1-2.34,1.23,2.48,2.48,0,0,1-2.5-.47,7.24,7.24,0,0,0-.79-1c-1-.8-2.39.32-3.17,1.34l-7,9.16A14.43,14.43,0,0,1,39,104.79a16.74,16.74,0,0,1-5.25,1.84,10.09,10.09,0,0,0-5,2.38c-2.52,2.6-.5,5.66.09,8.6a8.19,8.19,0,0,0,5,11.19,9.27,9.27,0,0,0,1.77.36,8,8,0,0,0,4.4-.89l.3-.18c.17.46.29.82.37,1.07a7.16,7.16,0,0,0,.71,4.38l.77,1.52a6.48,6.48,0,0,0,3.7,3.21,6.11,6.11,0,0,0,1.46.3,6.25,6.25,0,0,0,5.93-3,6.25,6.25,0,0,0,6.42-4.37c.26-.1.52-.19.77-.31a9.15,9.15,0,0,0,2.22-1.48L68.5,140a7.48,7.48,0,0,0,4.48,3.6,6.64,6.64,0,0,0,1.45.28,7.41,7.41,0,0,0,7.87-9.23,9.45,9.45,0,0,0,2.67-3l.32,0a7.21,7.21,0,0,0,3.22-.44,7.76,7.76,0,0,0,1.41.71,7.13,7.13,0,0,0,5.44-.22A7.06,7.06,0,0,0,99,127.75q.12-.34.21-.69a7.14,7.14,0,0,0,6.16.1,7,7,0,0,0,3.66-4.06,7.16,7.16,0,0,0,.33-1.44,7.24,7.24,0,0,0,2.46-2.21,7.2,7.2,0,0,0,4.14-.36,7.27,7.27,0,0,0,2.77-2l.32,0a7.57,7.57,0,0,0,3.12-.37,7.38,7.38,0,0,0,3.25-2.21,7.27,7.27,0,0,0,3.91-.23,7.43,7.43,0,0,0,2.32-1.29,7.35,7.35,0,0,0,2.62-.25,7,7,0,0,0,3.32-2.09,7.14,7.14,0,0,0,4,0,6.84,6.84,0,0,0,4.26-3.48,7.26,7.26,0,0,0,.38-5.64,7.17,7.17,0,0,0-2.61-3.54l-1.14-.9.35-1.18a7.21,7.21,0,0,0,0-3.91A13.75,13.75,0,0,0,150,93.21a12.07,12.07,0,0,0,8.7-4.91A14.26,14.26,0,0,0,160.82,77.09Z" fill="#e6bd00"/>
        <path d="M158.22,72.45h0c-2-8.13-9-13.09-16.77-11.85a13.49,13.49,0,0,0-6.93,3.22,8.58,8.58,0,0,0-5.66-1h-.05a7.22,7.22,0,0,0-3-1.25,7.58,7.58,0,0,0-3.39.18,7,7,0,0,0-.78.13,7.66,7.66,0,0,0-1.63.56,7.78,7.78,0,0,0-3.76,1.69,7.44,7.44,0,0,0-1.85,2.36c-.4.07-.79.15-1.2.25l-6.35,1.66a8.81,8.81,0,0,0-5.47,3.86,14.31,14.31,0,0,0-8.94,0,14.11,14.11,0,0,0-6,3.77c0-.13-.08-.25-.13-.38a8.36,8.36,0,0,0-5.19-4.77A8.64,8.64,0,0,0,73.8,72L71.69,73.3a20.46,20.46,0,0,0-4.24,3.42,9.2,9.2,0,0,0-.72-.68,8.38,8.38,0,0,0-.8-2.9c-2.07-4.29-7.46-7.17-14.84-3.91A14.48,14.48,0,0,0,45,74a7.39,7.39,0,0,0-.76,7.61,7.49,7.49,0,0,0,3.54,3.53,7.45,7.45,0,0,0,1.58,7l-.13.2a8.74,8.74,0,0,0-10.32,4.73,9.74,9.74,0,0,0-5.44,1.38L27,102.24a9,9,0,0,0-3.76,12l.1.21.75,1.44A25.86,25.86,0,0,1,26,120.43a8.64,8.64,0,0,0,5.9,11.51,9.18,9.18,0,0,0,2.8.26,8.7,8.7,0,0,0,3.53-1l.1.26a7.71,7.71,0,0,0,1,4.56l.83,1.46a6.94,6.94,0,0,0,4.21,3.28,6.8,6.8,0,0,0,2.33.23,7,7,0,0,0,3-.92,7.11,7.11,0,0,0,2.45-2.36,7,7,0,0,0,6.42-4.87c.19-.09.38-.17.57-.28a10.09,10.09,0,0,0,1.76-1.2l5.9,9.64a8,8,0,0,0,7.44,3.8,8.16,8.16,0,0,0,7.39-10A10.89,10.89,0,0,0,83.8,132c.28,0,.56,0,.83,0a8.24,8.24,0,0,0,2.38-.55,7.42,7.42,0,0,0,1.3.54,8,8,0,0,0,2.82.32,7.84,7.84,0,0,0,6.92-5.5l0-.09a7.78,7.78,0,0,0,9.87-5.12,7.09,7.09,0,0,0,.26-1.28,7.74,7.74,0,0,0,2.13-2.06,8,8,0,0,0,6.84-2.75,8.81,8.81,0,0,0,.89,0,8.61,8.61,0,0,0,2.51-.57,8.38,8.38,0,0,0,3.21-2.31,8.06,8.06,0,0,0,6.18-1.93c.18,0,.37,0,.55,0a8.23,8.23,0,0,0,2-.42,7.77,7.77,0,0,0,3.29-2.18,7.73,7.73,0,0,0,4-.3,7.61,7.61,0,0,0,4.5-4,7.85,7.85,0,0,0,.19-6.11h0a7.52,7.52,0,0,0-3-3.67l-.83-.59.2-.8A7.74,7.74,0,0,0,141,89.5a14.48,14.48,0,0,0,6.58.37,13.17,13.17,0,0,0,8.95-5.65A14.84,14.84,0,0,0,158.22,72.45Z" fill="#db291a"/>
        <g>
          <g>
            <path d="M42.57,118.47l-5.7-9.62-3.2,1.86.71,1.44c3.23,6.49,3.82,10.3,2.09,12.8a2.84,2.84,0,0,1-1,1,2.79,2.79,0,0,1-3.82-1,2.75,2.75,0,0,1,0-2.8c.67-1.16.33-3.55-2.36-8.93l-.78-1.49a3.09,3.09,0,0,1,1.38-4.36l6.53-3.77c1.86-1.07,3.48-.71,4.57,1.11l6.48,10.87a2.86,2.86,0,0,1-4.92,2.9Z" fill="#fff"/>
            <path d="M70.16,96.73c2.3,4.5,1.59,9.84-3.56,12.37-4.46,2.19-8.64.48-11.17-3l-2.23,1.08,2.09,4.22a2.77,2.77,0,0,1-1.3,3.69,2.82,2.82,0,0,1-3.77-1.21l-5.94-12.06a2.76,2.76,0,0,1,1.36-3.65,2.79,2.79,0,0,1,3.7,1.22L51.09,103l2.36-1.14a8.19,8.19,0,0,1,4.6-9.72C63.18,89.65,67.88,92.25,70.16,96.73Zm-5.08,2.46c-1.19-2.33-3-3.75-4.89-2.83s-1.83,3.17-.65,5.52,3,3.82,4.89,2.9S66.28,101.57,65.08,99.19Z" fill="#fff"/>
            <path d="M74.81,78.33,76.93,77c1.62-1,3.22-.54,3.89,1a2.31,2.31,0,0,1-1.1,3l-2.23,1.38c-3.44,2.09-4.9,4.67-4.17,7.48a6.86,6.86,0,0,1,4.41-5c4.32-1.69,8.24.58,10.16,5s1,9.68-4.3,11.81-9.74-.85-12.24-6.8C68.13,87.17,68.55,82.16,74.81,78.33Zm3.24,10.4c-1.88.74-2,3-1,5.33s2.75,4,4.64,3.24,2-3,1-5.48S80,88,78.05,88.73Z" fill="#fff"/>
            <path d="M89.43,89.24c-1.69-4.66-.4-9.61,4.84-11.32s9.46,1.4,11.19,6,.49,9.67-4.76,11.44S91.13,93.92,89.43,89.24Zm10.85-3.6c-.89-2.4-2.45-4-4.4-3.35s-2.1,2.8-1.22,5.21,2.48,4.07,4.4,3.42S101.19,88.08,100.28,85.64Z" fill="#fff"/>
            <path d="M109.57,88.68l-3.33-10.82a2.66,2.66,0,0,1,2.1-3.75l6.34-1.65c3.79-1,6,.67,6.73,2.83a3.75,3.75,0,0,1-1.75,4.56A4.47,4.47,0,0,1,124.22,83c.8,2.49-.17,5-4,6.06l-6.65,1.79A3,3,0,0,1,109.57,88.68Zm5.16-12.27-3.18.84.83,2.66,3.18-.85a1.26,1.26,0,0,0,1-1.71A1.38,1.38,0,0,0,114.73,76.41Zm2.17,6.31-3.36.89.92,3,3.37-.9a1.38,1.38,0,0,0,1.08-1.87A1.57,1.57,0,0,0,116.9,82.72Z" fill="#fff"/>
            <path d="M152.47,73.83c1.13,4.68-.67,9.31-5.93,10.21-4.54.77-8-1.9-9.55-5.67l-2.25.38,1,4.35a2.44,2.44,0,0,1-2,3,2.81,2.81,0,0,1-3.17-2.1L127.8,71.55a2.43,2.43,0,0,1,2-2.91,2.77,2.77,0,0,1,3.1,2.07l.83,3.64,2.39-.4c0-3.67,2-6.82,6.27-7.51C147.61,65.59,151.35,69.18,152.47,73.83Zm-5.19.87c-.57-2.43-1.89-4.18-3.84-3.86s-2.35,2.37-1.79,4.79,1.91,4.25,3.84,3.93S147.87,77.16,147.28,74.7Z" fill="#fff"/>
            <path d="M122.47,67.37c-1.52-1.38-3.88.17-2.84,1.81a5.89,5.89,0,0,0,2.4,1.56c.62.27,1.26.52,1.26.52a.43.43,0,0,0,.43-.11s.43-.48.83-1a5.93,5.93,0,0,0,1.28-2.6C125.91,65.57,123.09,65.41,122.47,67.37Z" fill="#fff"/>
          </g>
          <path d="M53.57,87.9a1.68,1.68,0,0,1,.87-2.24,2.11,2.11,0,0,1,.87-.17,6.13,6.13,0,0,0,3-.46c1.26-.57,1.58-1.38,1.24-2.09s-1.28-.83-2.56-.26l-1,.43a1.56,1.56,0,0,1-2.14-.74,1.46,1.46,0,0,1,.85-2l.84-.38c1.33-.59,1.68-1.28,1.34-2s-1.27-.83-2.36-.35a5.07,5.07,0,0,0-2.06,1.61,1.53,1.53,0,0,1-.66.54,1.71,1.71,0,0,1-2.22-.75,1.53,1.53,0,0,1,.18-1.57,8.58,8.58,0,0,1,3.7-2.89c3.33-1.47,6.08-1.11,7.13,1.06A3.55,3.55,0,0,1,59,80c1.78-.57,3.9-.15,4.72,1.55,1.09,2.25-.39,4.8-3.89,6.38a9.62,9.62,0,0,1-4.79.93A1.74,1.74,0,0,1,53.57,87.9Z" fill="#fff"/>
          <g>
            <path d="M77.69,121.47c2.49,4,2.12,7.57-.7,9.33a4.14,4.14,0,0,1-4.19.14l2.79,4.55a2.24,2.24,0,0,1-3.79,2.37l-8.41-13.75a2.21,2.21,0,0,1,.76-3,2.25,2.25,0,0,1,2.88.43A4.31,4.31,0,0,1,69.09,118C71.91,116.27,75.19,117.44,77.69,121.47Zm-3.82,2.36c-1.15-1.86-2.69-2.69-4.07-1.84a2.54,2.54,0,0,0-1.13,2.23l2.52,4.1a2.62,2.62,0,0,0,2.52,0C75.09,127.48,75,125.73,73.87,123.83Z" fill="#fff"/>
            <path d="M73.57,110.6a2.43,2.43,0,0,1,1-3.35,2.48,2.48,0,0,1,3.38.92,2.45,2.45,0,0,1-1,3.34A2.52,2.52,0,0,1,73.57,110.6Zm8.62,14.45L77,115.94a2.18,2.18,0,0,1,3.8-2.13l5.2,9.07a2.17,2.17,0,0,1-.82,2.93A2.19,2.19,0,0,1,82.19,125.05Z" fill="#fff"/>
            <path d="M100.5,115.4l1.67,3.11a1.85,1.85,0,0,1-.79,2.48,1.89,1.89,0,0,1-2.52-.75L98,118.6l-6.58,3.45.88,1.64a1.89,1.89,0,0,1-3.35,1.76l-1.39-2.62a2.53,2.53,0,0,1-.06-2.7c-.06-1.33-.6-3.57-2.15-7.13l-.46-1A2.29,2.29,0,0,1,86,108.87l5.08-2.6a2.31,2.31,0,0,1,3.43,1l3.76,7A2,2,0,0,1,100.5,115.4Zm-9.23-5.1-2.5,1.29.48,1a16.53,16.53,0,0,1,1.67,5.48l3.53-1.84Z" fill="#fff"/>
            <path d="M101.79,114.58l-4.44-9.34a2.08,2.08,0,0,1,1.05-2.76,2.16,2.16,0,0,1,2.82,1l1.31,2.74,3.48-1.58-1.32-2.73a2,2,0,0,1,1-2.73,2.15,2.15,0,0,1,2.82,1l4.47,9.24a2.07,2.07,0,0,1-1,2.78,2.16,2.16,0,0,1-2.83-1l-1.56-3.25-3.48,1.59,1.56,3.26a2.09,2.09,0,0,1-1,2.79A2.19,2.19,0,0,1,101.79,114.58Z" fill="#fff"/>
            <path d="M115.18,108.15,111.29,99a2,2,0,0,1,1.13-2.65,2.13,2.13,0,0,1,2.71,1.15l2.16,5,.53-6.83a2.41,2.41,0,0,1,1.54-2.07A2.65,2.65,0,0,1,122.72,95l3.86,8.92a2,2,0,0,1-1.09,2.67,2.11,2.11,0,0,1-2.72-1.16l-2.33-5.39-.6,7.4a2.32,2.32,0,0,1-1.45,2A2.49,2.49,0,0,1,115.18,108.15Z" fill="#fff"/>
            <path d="M139,99.84a1.79,1.79,0,0,1-1.07,2.4,1.86,1.86,0,0,1-1.83-.32l-3.39-2.56-.85,4a1.75,1.75,0,0,1-1.19,1.38,2,2,0,0,1-2.5-1.18,1.8,1.8,0,0,1,0-1.12l1.29-4.94-4.08-2.89a1.9,1.9,0,0,1-.7-.87,1.8,1.8,0,0,1,1.13-2.38,2,2,0,0,1,1.83.34L130.66,94l.75-3.63a1.73,1.73,0,0,1,1.15-1.34,2,2,0,0,1,2.5,1.16,1.85,1.85,0,0,1,.05,1.06l-1.17,4.64,4.3,3A1.71,1.71,0,0,1,139,99.84Z" fill="#fff"/>
          </g>
          <g>
            <path d="M51.85,128.4l1,1.75a1.09,1.09,0,0,1-.44,1.45,1.06,1.06,0,0,1-1.46-.35l-.52-.92-3.78,2.18.51.92a1.11,1.11,0,0,1-.44,1.46,1.08,1.08,0,0,1-1.48-.35l-.82-1.47a1.43,1.43,0,0,1-.06-1.55A12.49,12.49,0,0,0,43,127.47l-.28-.57a1.35,1.35,0,0,1,.63-1.84l2.92-1.67a1.32,1.32,0,0,1,2,.5l2.24,4A1.11,1.11,0,0,1,51.85,128.4Zm-5.4-2.67-1.44.82.29.58a9.17,9.17,0,0,1,1,3.12l2-1.16Z" fill="#fff"/>
            <path d="M50.8,125.46a4,4,0,1,1,5.48,1.85A3.9,3.9,0,0,1,50.8,125.46Zm4.73-2.54c-.55-1-1.36-1.63-2.21-1.17s-.79,1.46-.25,2.49,1.37,1.64,2.21,1.19S56.08,124,55.53,122.92Z" fill="#fff"/>
          </g>
        </g>
      </g>
    </g>
  </g>
</svg>
