<svg xmlns="http://www.w3.org/2000/svg" xmlns:xlink="http://www.w3.org/1999/xlink" viewBox="0 0 82.16 40.01"><defs><clipPath id="a"><rect width="82.16" height="40.01" fill="none"/></clipPath></defs><title>action</title><g clip-path="url(#a)"><path d="M20.3,19.83A2.13,2.13,0,0,1,18,21.74a2.11,2.11,0,0,1-1.85-1.69l-.32-1.44-6.68-.67-.6,1.34a2.12,2.12,0,0,1-4.06-1,1.88,1.88,0,0,1,.22-.72l5.46-11a3.73,3.73,0,0,1,3.7-2A3.68,3.68,0,0,1,17,7.2l3.19,11.89A2.41,2.41,0,0,1,20.3,19.83ZM15,15l-1.5-6.62-2.78,6.2Z" fill="none" stroke="#e20213" stroke-linecap="round" stroke-linejoin="round" stroke-width="8.9"/><path d="M35.18,22.55a2,2,0,0,1-3.74.73L27.72,16.9,26.32,18l-.49,2.8a2.11,2.11,0,1,1-4.15-.73L23.86,7.75A2.11,2.11,0,1,1,28,8.49l-.84,4.73L33.77,8a1.93,1.93,0,0,1,1.56-.39,2,2,0,0,1,1.58,2.3,1.93,1.93,0,0,1-.68,1.2l-5.1,3.8,3.82,6.25A2,2,0,0,1,35.18,22.55Z" fill="none" stroke="#e20213" stroke-linecap="round" stroke-linejoin="round" stroke-width="8.9"/><path d="M52.89,27l-.74,2.9A1.85,1.85,0,0,1,48.57,29l.3-1.19L38.45,25.19a2,2,0,0,1-1.61-2.71l3-11.82a2.11,2.11,0,1,1,4.08,1L41.28,22.12l6.1,1.55L50,13.25a2.11,2.11,0,1,1,4.08,1L51.46,24.71h0A1.86,1.86,0,0,1,52.89,27Z" fill="none" stroke="#e20213" stroke-linecap="round" stroke-linejoin="round" stroke-width="8.9"/><path d="M54.26,27.49,58,15.56a2.11,2.11,0,1,1,4,1.27L58.27,28.76a2.11,2.11,0,1,1-4-1.27Z" fill="none" stroke="#e20213" stroke-linecap="round" stroke-linejoin="round" stroke-width="8.9"/><path d="M77.52,22.77,73.2,34.19a2.12,2.12,0,1,1-4-1.5l1.28-3.39-2.22-.84-4.89,3.37a2.2,2.2,0,0,1-1.92.22,2.11,2.11,0,0,1-.33-3.77l3.19-2a5,5,0,0,1-1-5.42c1.07-2.84,3.87-4.35,7.26-3.07l5.55,2.1A2,2,0,0,1,77.52,22.77Zm-4.43-.26L70,21.33a1.84,1.84,0,1,0-1.3,3.44l3.12,1.18Z" fill="none" stroke="#e20213" stroke-linecap="round" stroke-linejoin="round" stroke-width="8.9"/><path d="M20.3,19.83A2.13,2.13,0,0,1,18,21.74a2.11,2.11,0,0,1-1.85-1.69l-.32-1.44-6.68-.67-.6,1.34a2.12,2.12,0,0,1-4.06-1,1.88,1.88,0,0,1,.22-.72l5.46-11a3.73,3.73,0,0,1,3.7-2A3.68,3.68,0,0,1,17,7.2l3.19,11.89a2.41,2.41,0,0,1,.07.75M15,15l-1.5-6.62-2.78,6.2Z" fill="#fff"/><path d="M35.18,22.55a2,2,0,0,1-3.74.73L27.72,16.9,26.32,18l-.49,2.8a2.11,2.11,0,1,1-4.15-.73L23.86,7.75A2.11,2.11,0,1,1,28,8.49l-.84,4.73L33.77,8a1.93,1.93,0,0,1,1.56-.39,2,2,0,0,1,1.58,2.3,1.93,1.93,0,0,1-.68,1.2l-5.1,3.8,3.82,6.25a2,2,0,0,1,.23,1.38" fill="#fff"/><path d="M52.89,27l-.74,2.9A1.85,1.85,0,0,1,48.57,29l.3-1.19L38.45,25.19a2,2,0,0,1-1.61-2.71l3-11.82a2.11,2.11,0,1,1,4.08,1L41.28,22.12l6.1,1.55L50,13.25a2.11,2.11,0,1,1,4.08,1L51.46,24.71h0A1.86,1.86,0,0,1,52.89,27" fill="#fff"/><path d="M54.26,27.49,58,15.56a2.11,2.11,0,1,1,4,1.27L58.27,28.76a2.11,2.11,0,1,1-4-1.27" fill="#fff"/><path d="M77.52,22.77,73.2,34.19a2.12,2.12,0,1,1-4-1.5l1.28-3.39-2.22-.84-4.89,3.37a2.2,2.2,0,0,1-1.92.22,2.11,2.11,0,0,1-.33-3.77l3.19-2a5,5,0,0,1-1-5.42c1.07-2.84,3.87-4.35,7.26-3.07l5.55,2.1a2,2,0,0,1,1.32,2.88m-4.43-.26L70,21.33a1.84,1.84,0,1,0-1.3,3.44l3.12,1.18Z" fill="#fff"/></g></svg>